inDegrees=no
num_controls=7
num_derivatives=13
num_iterations=115
num_multipliers=7
num_parameters=0
num_slacks=7
num_states=26
objective=0.496344
objective_accelerations=0.011672
objective_balance=0.003512
objective_effort=0.017357
objective_height=0.455941
objective_ligament=0.007862
solver_duration=1562.133411
status=Solve_Succeeded
success=true
DataType=double
version=3
OpenSimVersion=4.5
endheader
time	/jointset/ground_pelvis/pelvis_tilt/value	/jointset/ground_pelvis/pelvis_tx/value	/jointset/ground_pelvis/pelvis_ty/value	/jointset/hip_l/hip_flexion_l/value	/jointset/hip_l/hip_adduction_l/value	/jointset/hip_l/hip_rotation_l/value	/jointset/back/lumbar_extension/value	/jointset/patellofemoral_l/patellar_flexion_l/value	/jointset/knee_l/knee_flexion_l/value	/jointset/knee_l/knee_adduction_l/value	/jointset/knee_l/knee_rotation_l/value	/jointset/ankle_l/ankle_angle_l/value	/jointset/subtalar_l/subtalar_angle_l/value	/jointset/ground_pelvis/pelvis_tilt/speed	/jointset/ground_pelvis/pelvis_tx/speed	/jointset/ground_pelvis/pelvis_ty/speed	/jointset/hip_l/hip_flexion_l/speed	/jointset/hip_l/hip_adduction_l/speed	/jointset/hip_l/hip_rotation_l/speed	/jointset/back/lumbar_extension/speed	/jointset/patellofemoral_l/patellar_flexion_l/speed	/jointset/knee_l/knee_flexion_l/speed	/jointset/knee_l/knee_adduction_l/speed	/jointset/knee_l/knee_rotation_l/speed	/jointset/ankle_l/ankle_angle_l/speed	/jointset/subtalar_l/subtalar_angle_l/speed	/forceset/tau_hip_flexion_l	/forceset/tau_hip_adduction_l	/forceset/tau_hip_rotation_l	/forceset/tau_knee_flexion_l	/forceset/tau_ankle_angle_l	/forceset/tau_subtalar_angle_l	/forceset/tau_lumbar_extension	lambda_cid13_p0	lambda_cid13_p1	lambda_cid13_p2	lambda_cid13_p3	lambda_cid13_p4	lambda_cid13_p5	lambda_cid14_p0	/jointset/ground_pelvis/pelvis_tilt/accel	/jointset/ground_pelvis/pelvis_tx/accel	/jointset/ground_pelvis/pelvis_ty/accel	/jointset/hip_l/hip_flexion_l/accel	/jointset/hip_l/hip_adduction_l/accel	/jointset/hip_l/hip_rotation_l/accel	/jointset/back/lumbar_extension/accel	/jointset/patellofemoral_l/patellar_flexion_l/accel	/jointset/knee_l/knee_flexion_l/accel	/jointset/knee_l/knee_adduction_l/accel	/jointset/knee_l/knee_rotation_l/accel	/jointset/ankle_l/ankle_angle_l/accel	/jointset/subtalar_l/subtalar_angle_l/accel	gamma_cid13_p0	gamma_cid13_p1	gamma_cid13_p2	gamma_cid13_p3	gamma_cid13_p4	gamma_cid13_p5	gamma_cid14_p0
1.5	0.1219615271451065	0.04272678583371346	0.9340301516505715	0.1370539974616073	-0.2904935096469289	-0.3091982600640293	-0.7172403443119719	0.2333123874889495	0.2333123874889408	-0.1692256284479776	-0.17446828454465	-0.003621113266491644	0.004878879457434052	0.0001433269126527242	0.1725306625753559	0.05288618174232766	-0.5186717894018837	0.07959809889964761	-0.2045806888961261	0.8510763120401019	-0.5195663525521345	-0.5195663525521663	-0.004539099560873394	-0.0001014615118404511	-0.009023706932612733	0.08176002245335885	-0.08934088348926023	0.02515779736461374	-0.002424164217290097	-0.09526631648301599	0.05954693667246878	0.01828076906618827	0.2066123012907379	-26.05745809429147	-7.138994811681489	4.981099715423916	1.863720582628425	-694.2936759380036	-73.63497870689427	-22.95474437765214	-0.2174897848855495	0.1155420629901899	-0.09563379856647487	0.117862316686751	0.04362057702224219	-0.03165479579921835	0.6468654384939612	-0.05771689668619156	-0.05771689668619185	-0.0509019589720943	-0.001757839568773845	0.05830407834267638	0.06669058180745967	2.998823319056325e-09	1.922550958406497e-08	-1.278277355234255e-08	-5.11045732017824e-10	1.921712651865728e-08	5.330781053005933e-09	3.815346623985254e-09
1.51	0.1219522198159053	0.04445762106144471	0.9345541686200659	0.1318735735695687	-0.2896954749829981	-0.3112454749478498	-0.7086985500935751	0.2281142895586331	0.2281142895586274	-0.1692736944368616	-0.1744694070359964	-0.003708552970388578	0.005699641217716327	-0.00199474700379919	0.1736106604849431	0.05191020491433644	-0.5173545245407335	0.0799996857625407	-0.2048395556307205	0.8571551435735472	-0.5199874737594002	-0.5199874737594216	-0.005072265728535474	-0.0001244712524154973	-0.008465936961864052	0.08238217616196965	-0.08507660012298279	0.02396540823719553	-0.002727523570455108	-0.0958389661685429	0.06024159711075758	0.01755304238381097	0.2021925330446152	-25.81620269263499	-6.876890254400775	4.952683047246269	1.97482009603688	-693.4155477806077	-73.69121398318447	-22.88048042848538	-0.2104597053823731	0.1003699212091267	-0.09962573609394158	0.1474282430587817	0.03705286503814701	-0.01958929571429051	0.5692838007074654	-0.02444659218323352	-0.02444659218171063	-0.05424657134335629	-0.002791115354735751	0.05425842432336006	0.05845343568483918	3.820290167869352e-09	1.88722046214768e-08	-1.37942880190743e-08	-1.366293240211887e-09	2.2951774663951e-08	5.253016552288577e-09	4.010046276616157e-09
1.52	0.1219218330454668	0.0461984845215245	0.9350682165990449	0.1267080762605856	-0.2888936994256144	-0.3132945958357001	-0.7000997892018566	0.2229139530443605	0.222913953044359	-0.1693270366125648	-0.1744708033395506	-0.003790465981001059	0.006526319649144149	-0.004072561334542012	0.1745363090450662	0.05089238363925073	-0.5156864727904112	0.08034627759004184	-0.204961889702301	0.8624696467045168	-0.5200140693441211	-0.520014069344132	-0.005594336923399178	-0.0001562239551064431	-0.007918368275815347	0.08294335668245968	-0.08081231675669878	0.02277301910978464	-0.003030882923668932	-0.09641161585404888	0.06093625754905749	0.01682531570144573	0.1977727647984882	-25.57622226254995	-6.614209337952317	4.923771213459173	2.07935521137661	-692.558546112635	-73.74976328055517	-22.8031926358921	-0.2054378677439124	0.08467219309757419	-0.1040026879853682	0.1880196945211065	0.03262156994383909	-0.004348263196435472	0.4939997579987324	0.02118822782276909	0.02118822782276905	-0.0486829644124421	-0.003506431991943536	0.05626382140289189	0.05449594418337322	4.632490626196352e-09	1.839260753756846e-08	-1.477083464051331e-08	-2.206364020539523e-09	2.65715404097506e-08	5.1913905710058e-09	4.188088356776999e-09
1.53	0.1218710080729901	0.04794783264702079	0.9355718921344437	0.1215609210555445	-0.288088745925711	-0.3153442172775248	-0.6914517319828429	0.2177152504794417	0.2177152504794427	-0.1693855888175281	-0.1744725046067295	-0.003866981126631724	0.007358281358394322	-0.006080945404093286	0.1753073515101664	0.04983674221494821	-0.5136888193538641	0.08063379137156165	-0.2049365081437395	0.867013797044066	-0.5196619127470044	-0.519661912747021	-0.006116758686365039	-0.000182592662940438	-0.007386858212498739	0.08343706190611302	-0.07652304408709427	0.0215487503268872	-0.003343676065504768	-0.09706511383510483	0.0617166184828471	0.0160855171497869	0.1933509494011114	-25.31417414329942	-6.348937146519165	4.893061384143328	2.175637565035916	-691.7711510924398	-73.81486558224216	-22.72291787254942	-0.1968159203810681	0.06942489785232826	-0.1072356651200773	0.2140005982458856	0.02521904462561364	0.009868682329976383	0.4154226636141719	0.05190812257410266	0.05190812257316503	-0.05411776365383264	-0.001990286368723902	0.05126556432097675	0.04501839423985701	5.434845544631948e-09	1.777882507475745e-08	-1.571022792632878e-08	-3.030309527509079e-09	3.006924360608771e-08	5.146911766622262e-09	4.348431766188402e-09
1.54	0.1218004438110514	0.04970411212209475	0.936064833096506	0.1164354148708698	-0.2872812367355178	-0.3173928074403728	-0.6827620732620985	0.2125220052298814	0.2125220052298839	-0.1694493844364105	-0.1744744272002163	-0.003938246978523757	0.008194822236437799	-0.008020419226450965	0.1759225789605972	0.04874546897197067	-0.5113566687163547	0.08085741564785888	-0.2047556339072735	0.8707899470508808	-0.5189226062731666	-0.5189226062731891	-0.006643019705935081	-0.000200489218359549	-0.006868509528181016	0.08385919044110959	-0.07223377141749369	0.02032448154400168	-0.003656469207393293	-0.09771861181614723	0.06249697941664651	0.01534571859814452	0.1889291340037229	-25.05306531472973	-6.083076786455806	4.86177388981837	2.265116972340206	-690.9994469924006	-73.881455884939	-22.63970259221921	-0.191655818305385	0.05350919016388541	-0.1111290517203701	0.2549191347135298	0.01984366889930816	0.02675027238445142	0.3403996914517763	0.09861820316693247	0.09861820316693172	-0.04945081573329996	-0.001812001508956285	0.05363154560332069	0.04018060645208572	6.227465603433309e-09	1.711435252082511e-08	-1.650810771642162e-08	-3.880441297075227e-09	3.378661887827828e-08	4.975949170986732e-09	4.484000557355194e-09
1.55	0.1217108439498815	0.05146575236258257	0.9365466942157412	0.1113348941018073	-0.2864717963216735	-0.3194388109632899	-0.6740385478292639	0.2073380743535795	0.2073380743535851	-0.1695184257271156	-0.1744764747009985	-0.004004407911827909	0.009035236546875845	-0.009889022696096561	0.1763779683369326	0.04762139636323783	-0.5086854276438173	0.08102103684074777	-0.2044198236428857	0.8737836280803492	-0.5177933263930307	-0.5177933263930359	-0.007160502277568901	-0.0002095342636149143	-0.006364535861548784	0.08421323888524912	-0.06787680547109337	0.0190490623343116	-0.003984217347150617	-0.09849565528536063	0.06339776480331241	0.01458942682497979	0.1844630807642378	-24.75858548353953	-5.814196340331666	4.828062908227335	2.350508285949656	-690.283726735043	-73.95917697520562	-22.55359669879323	-0.1828835490657451	0.03742764191964992	-0.1138421496293667	0.282535382681093	0.01317419076563488	0.04078736167001348	0.259125593144676	0.1306183394001867	0.1306183394027221	-0.05218459033061093	-0.0005331839482649338	0.048652168293849	0.03145146805321775	7.008869410916962e-09	1.639147616625297e-08	-1.714293934839927e-08	-4.760744195285271e-09	3.775709458569132e-08	4.659255250647831e-09	4.591024679674934e-09
